<?xml version="1.0" encoding="UTF-8" standalone="no"?>
<svg width="205px" height="80px" viewBox="0 0 205 80" version="1.1" xmlns="http://www.w3.org/2000/svg" xmlns:xlink="http://www.w3.org/1999/xlink">
    <!-- Generator: Sketch 39.1 (31720) - http://www.bohemiancoding.com/sketch -->
    <title>g11</title>
    <desc>Created with Sketch.</desc>
    <defs/>
    <g id="Page-1" stroke="none" stroke-width="1" fill="none" fill-rule="evenodd">
        <g id="g11" transform="translate(102.500000, 39.825000) scale(1, -1) translate(-102.500000, -39.825000) translate(0.000000, -0.675000)" fill="#8F8C8D">
            <path d="M66.379,30.636 L67.09,29.414 C66.492,29.018 65.803,28.695 65.011,28.454 C64.227,28.201 63.226,28.078 62.02,28.078 C60.913,28.078 59.91,28.289 59.018,28.703 C58.116,29.129 57.341,29.705 56.697,30.456 C56.041,31.195 55.558,32.008 55.227,32.894 C54.914,33.788 54.748,34.708 54.748,35.656 C54.748,36.605 54.915,37.524 55.231,38.422 C55.567,39.323 56.05,40.137 56.702,40.869 C57.343,41.602 58.116,42.165 59.018,42.591 C59.91,43.008 60.913,43.219 62.02,43.219 C62.873,43.219 63.62,43.156 64.258,43.036 C64.887,42.912 65.389,42.777 65.758,42.629 C66.127,42.476 66.467,42.305 66.791,42.116 L66.214,40.734 C66.042,40.815 65.835,40.909 65.594,41.006 C65.357,41.113 65.077,41.22 64.74,41.329 C64.409,41.436 64.036,41.525 63.592,41.6 C63.159,41.666 62.657,41.698 62.106,41.698 C61.381,41.698 60.692,41.55 60.057,41.242 C59.431,40.932 58.865,40.509 58.384,39.951 C57.895,39.4 57.523,38.754 57.249,38.012 C56.974,37.268 56.844,36.491 56.844,35.656 C56.844,34.535 57.086,33.511 57.583,32.584 C58.069,31.669 58.741,30.941 59.589,30.408 C60.422,29.87 61.343,29.598 62.342,29.598 C63.411,29.598 64.243,29.698 64.822,29.9 C65.411,30.102 65.935,30.35 66.379,30.636" id="path17"/>
            <polygon id="path19" points="69.169 28.37 71.1006 28.37 71.1006 42.936 69.169 42.936"/>
            <polyline id="path21" points="73.381 41.493 73.381 42.936 84.61 42.936 84.61 41.493 79.958 41.493 79.958 28.37 78.035 28.37 78.035 41.493 73.381 41.493"/>
            <polyline id="path23" points="95.121 42.936 96.962 42.936 92.259 35.436 92.259 28.37 90.32 28.37 90.32 35.436 85.713 42.936 87.807 42.936 91.483 36.907 95.121 42.936"/>
            <path d="M110.949,41.796 C109.962,41.796 109.083,41.55 108.323,41.028 C107.564,40.516 106.976,39.797 106.565,38.872 C106.161,37.945 105.955,36.881 105.955,35.656 C105.955,34.437 106.161,33.361 106.565,32.433 C106.976,31.508 107.564,30.787 108.323,30.277 C109.083,29.752 109.962,29.502 110.949,29.502 C111.688,29.502 112.368,29.641 112.988,29.934 C113.607,30.231 114.14,30.644 114.584,31.198 C115.031,31.744 115.373,32.39 115.599,33.144 C115.834,33.893 115.949,34.733 115.949,35.656 C115.949,36.584 115.834,37.413 115.594,38.17 C115.361,38.929 115.026,39.576 114.589,40.109 C114.158,40.651 113.635,41.066 113.022,41.364 C112.408,41.66 111.717,41.796 110.949,41.796 L110.949,41.796 Z M110.949,43.219 C112.422,43.219 113.697,42.894 114.775,42.259 C115.841,41.635 116.657,40.744 117.213,39.594 C117.767,38.447 118.045,37.127 118.045,35.656 C118.045,34.538 117.868,33.501 117.518,32.555 C117.163,31.618 116.663,30.808 116.016,30.142 C115.374,29.476 114.617,28.958 113.748,28.612 C112.879,28.255 111.947,28.078 110.949,28.078 C109.893,28.078 108.927,28.257 108.054,28.617 C107.183,28.968 106.43,29.485 105.802,30.147 C105.169,30.811 104.685,31.612 104.351,32.543 C104.014,33.485 103.848,34.52 103.848,35.656 C103.848,36.745 104.014,37.737 104.351,38.664 C104.685,39.59 105.163,40.391 105.782,41.066 C106.395,41.736 107.15,42.265 108.04,42.65 C108.93,43.025 109.902,43.219 110.949,43.219 L110.949,43.219 Z" id="path25"/>
            <polyline id="path27" points="122.696 28.37 120.763 28.37 120.763 42.936 128.312 42.936 128.312 41.493 122.696 41.493 122.696 36.6 126.642 36.6 126.642 35.151 122.696 35.151 122.696 28.37"/>
            <polyline id="path29" points="44.472 22.086 36.615 0.66 34.638 0.66 27.623 22.086 31.365 22.086 36.051 7.122 41.229 22.086 44.472 22.086"/>
            <path d="M56.078,8.597 L53.296,16.25 L50.326,8.597 L56.078,8.597 L56.078,8.597 Z M49.368,6.119 L47.312,0.846 L44.028,0.846 L52.672,22.157 L54.849,22.157 L62.688,0.846 L58.888,0.846 L56.983,6.119 L49.368,6.119 L49.368,6.119 Z" id="path31"/>
            <polyline id="path33" points="81.024 22.086 84.227 22.086 84.227 0.846 80.995 0.846 69.006 16.158 69.006 0.846 65.807 0.846 65.807 22.086 68.897 22.086 81.024 6.54 81.024 22.086"/>
            <path d="M104.502,4.593 L105.679,2.181 C104.763,1.647 103.722,1.215 102.561,0.898 C101.401,0.584 99.949,0.424 98.183,0.424 C96.591,0.424 95.139,0.714 93.804,1.283 C92.467,1.852 91.313,2.665 90.327,3.705 C89.34,4.736 88.59,5.928 88.068,7.268 C87.55,8.586 87.288,9.999 87.288,11.472 C87.288,12.951 87.551,14.349 88.077,15.697 C88.603,17.038 89.354,18.222 90.335,19.25 C91.318,20.28 92.467,21.077 93.804,21.646 C95.139,22.22 96.591,22.492 98.183,22.492 C99.533,22.492 100.67,22.426 101.596,22.249 C102.525,22.08 103.263,21.877 103.809,21.653 C104.356,21.437 104.876,21.19 105.37,20.914 L104.299,18.379 C103.79,18.621 103.328,18.813 102.911,18.975 C102.495,19.137 101.904,19.299 101.135,19.456 C100.373,19.614 99.491,19.681 98.493,19.681 C97.248,19.681 96.057,19.332 94.924,18.615 C93.786,17.889 92.881,16.906 92.204,15.645 C91.53,14.375 91.201,12.996 91.201,11.472 C91.201,9.946 91.538,8.552 92.229,7.309 C92.92,6.045 93.839,5.05 94.987,4.327 C96.127,3.609 97.356,3.243 98.665,3.243 C100.068,3.243 101.174,3.362 102,3.612 C102.827,3.841 103.662,4.175 104.502,4.593" id="path35"/>
            <path d="M118.779,19.824 C117.74,19.824 116.794,19.629 115.941,19.211 C115.084,18.798 114.365,18.222 113.763,17.483 C113.161,16.737 112.698,15.851 112.38,14.82 C112.064,13.791 111.904,12.677 111.904,11.472 C111.904,10.299 112.064,9.198 112.38,8.173 C112.698,7.134 113.165,6.24 113.78,5.483 C114.391,4.716 115.115,4.133 115.954,3.727 C116.798,3.309 117.74,3.098 118.779,3.098 C120.166,3.098 121.377,3.463 122.415,4.167 C123.442,4.884 124.254,5.882 124.826,7.174 C125.39,8.452 125.674,9.884 125.674,11.472 C125.674,12.645 125.514,13.741 125.198,14.764 C124.883,15.79 124.417,16.682 123.806,17.444 C123.198,18.199 122.48,18.783 121.635,19.206 C120.785,19.625 119.831,19.824 118.779,19.824 L118.779,19.824 Z M118.779,22.492 C120.924,22.492 122.818,22.038 124.477,21.101 C126.113,20.168 127.361,18.858 128.247,17.196 C129.135,15.529 129.565,13.618 129.565,11.472 C129.565,9.812 129.297,8.307 128.737,6.939 C128.173,5.572 127.385,4.402 126.381,3.433 C125.412,2.458 124.247,1.714 122.929,1.195 C121.625,0.686 120.236,0.424 118.779,0.424 C116.708,0.424 114.858,0.878 113.228,1.782 C111.59,2.685 110.307,3.965 109.391,5.644 C108.467,7.326 108.003,9.262 108.003,11.472 C108.003,13.037 108.268,14.475 108.799,15.831 C109.33,17.179 110.066,18.342 111.022,19.336 C111.977,20.327 113.123,21.101 114.46,21.658 C115.788,22.229 117.231,22.492 118.779,22.492 L118.779,22.492 Z" id="path37"/>
            <path d="M150.338,22.086 L150.338,7.914 C150.338,6.683 150.032,5.502 149.417,4.352 C148.818,3.21 147.883,2.266 146.577,1.535 C145.277,0.801 143.694,0.424 141.748,0.424 C139.939,0.424 138.363,0.734 137.093,1.344 C135.802,1.956 134.839,2.817 134.169,3.914 C133.526,5.021 133.201,6.321 133.201,7.803 L133.201,22.086 L136.865,22.086 L136.865,8.19 C136.865,7.063 137.044,6.139 137.397,5.402 C137.756,4.662 138.316,4.105 139.089,3.747 C139.861,3.38 140.832,3.195 142.001,3.195 C143.105,3.195 144.033,3.426 144.776,3.873 C145.5,4.342 146.069,4.951 146.447,5.715 C146.826,6.483 147.012,7.309 147.012,8.19 L147.012,22.086 L150.338,22.086" id="path39"/>
            <polyline id="path41" points="169.945 22.086 162.102 0.66 160.091 0.66 153.082 22.086 156.811 22.086 161.514 7.122 166.703 22.086 169.945 22.086"/>
            <polyline id="path43" points="185.553 3.571 185.553 0.846 172.682 0.846 172.682 22.086 185.181 22.086 185.181 19.363 176.346 19.363 176.346 13.14 182.775 13.14 182.775 10.437 176.346 10.437 176.346 3.571 185.553 3.571"/>
            <path d="M192.455,12.909 L194.401,12.909 C195.782,12.909 196.848,13.233 197.584,13.917 C198.324,14.588 198.703,15.379 198.703,16.28 C198.703,17.228 198.344,18.008 197.641,18.648 C196.937,19.28 195.863,19.599 194.416,19.599 L192.455,19.599 L192.455,12.909 L192.455,12.909 Z M204.733,0.854 L200.629,0.543 L194.649,10.415 L192.455,10.415 L192.455,0.846 L188.794,0.846 L188.794,22.086 L194.682,22.086 C196.328,22.086 197.704,21.82 198.87,21.301 C200.046,20.767 200.899,20.091 201.448,19.255 C202.01,18.418 202.291,17.545 202.291,16.622 C202.291,15.287 201.858,14.123 201.011,13.14 C200.163,12.15 199.229,11.499 198.233,11.205 L204.733,0.854 L204.733,0.854 Z" id="path45"/>
            <path d="M59.839,78.796 C59.839,78.796 43.12,65.07 42.038,45.507 C42.038,45.507 36.79,63.406 17.01,68.493 C17.01,68.493 14.233,50.167 34.768,37.261 C34.768,37.261 12.788,38.894 0,22.568 C0,22.568 7.269,37.039 26.476,40.575 C26.476,40.575 13.843,49.687 14.689,70.72 C14.689,70.72 29.684,70.691 41.071,53.653 C41.071,53.653 41.456,67.715 59.839,78.796" id="path47"/>
            <path d="M81.267,62.687 C81.267,62.687 58.728,61.899 49.665,43.307 C49.665,43.307 57.865,68.036 40.537,77.659 C40.537,77.659 25.597,61.832 38.436,42.481 C38.436,42.481 19.875,56.631 2.523,47.576 C2.523,47.576 12.743,25.431 40.27,34.418 C40.27,34.418 12.819,18.334 0.64,48.007 C0.64,48.007 13.375,60.378 33.505,48.133 C33.505,48.133 22.613,63.643 39.953,80.06 C39.953,80.06 58.973,72.877 53.284,52.949 C53.284,52.949 59.841,63.053 81.267,62.687" id="path49"/>
        </g>
    </g>
</svg>