<?xml version="1.0" encoding="utf-8"?>
<!-- Generator: Adobe Illustrator 25.4.1, SVG Export Plug-In . SVG Version: 6.00 Build 0)  -->
<svg version="1.1" id="Layer_1" xmlns="http://www.w3.org/2000/svg" xmlns:xlink="http://www.w3.org/1999/xlink" x="0px" y="0px"
	 viewBox="0 0 75 30" style="enable-background:new 0 0 75 30;" xml:space="preserve">
<style type="text/css">
	.st0{fill:#666666;}
</style>
<path class="st0" d="M6.6,23.6v5.8H1.3V1.2h5.3V17l7.3-7.7H21L12.3,18L21,29.4h-6.9l-5.4-7.9L6.6,23.6z"/>
<path class="st0" d="M23.8,1c0.6-0.7,1.5-1,2.4-1s1.8,0.3,2.4,1s1,1.5,1,2.4s-0.3,1.8-1,2.4s-1.5,1-2.4,1s-1.8-0.3-2.4-1
	c-0.6-0.6-1-1.5-1-2.4S23.1,1.7,23.8,1z M28.8,29.4h-5.3V9.3h5.3V29.4z"/>
<path class="st0" d="M53.8,29.4h-5.3v-2.8c-0.7,1-1.7,1.8-2.8,2.4s-2.4,0.9-3.9,0.9c-1.3,0-2.4-0.2-3.5-0.7s-2.1-1.2-2.9-2.1
	c-0.8-0.9-1.5-2-2-3.3s-0.7-2.8-0.7-4.5s0.2-3.2,0.7-4.5s1.1-2.4,2-3.3s1.8-1.6,2.9-2.1c1.1-0.5,2.3-0.7,3.5-0.7
	c1.6,0,2.9,0.3,4.1,1s2,1.5,2.7,2.4v-11h5.3L53.8,29.4L53.8,29.4z M41.2,14.3c-0.6,0.3-1.2,0.6-1.7,1.1s-0.8,1-1.1,1.7
	c-0.3,0.7-0.4,1.4-0.4,2.2s0.1,1.5,0.4,2.2c0.3,0.7,0.6,1.2,1.1,1.7s1,0.8,1.7,1.1c0.6,0.3,1.3,0.4,2.1,0.4c1.5,0,2.8-0.5,3.8-1.5
	s1.5-2.3,1.5-4s-0.5-3-1.5-4s-2.3-1.4-3.8-1.4C42.6,13.9,41.9,14.1,41.2,14.3z"/>
<path class="st0" d="M60.2,10.4c1.5-1.1,3.6-1.7,6.3-1.7c1.9,0,3.4,0.3,4.7,0.8s2.4,1.3,3.3,2.2l-3,3.9c-0.6-0.6-1.3-1.1-2.3-1.5
	s-2-0.6-3.1-0.6c-1.7,0-2.6,0.5-2.6,1.4c0,0.2,0.1,0.5,0.2,0.6c0.1,0.2,0.4,0.3,0.8,0.5c0.4,0.1,0.8,0.3,1.5,0.4
	c0.6,0.1,1.4,0.3,2.2,0.5c0.9,0.2,1.7,0.4,2.5,0.7c0.8,0.3,1.5,0.7,2,1.1c0.6,0.5,1,1.1,1.4,1.8c0.3,0.7,0.5,1.6,0.5,2.7
	c0,2.3-0.8,4-2.3,5c-1.6,1-3.7,1.6-6.4,1.6c-1.9,0-3.7-0.3-5.3-0.8c-1.6-0.6-2.8-1.4-3.7-2.5l3.1-4c0.7,0.8,1.5,1.4,2.6,1.9
	s2.3,0.7,3.8,0.7c0.8,0,1.4-0.1,1.9-0.3c0.5-0.2,0.8-0.6,0.8-1.2c0-0.3-0.1-0.5-0.2-0.7s-0.4-0.3-0.7-0.5c-0.3-0.1-0.8-0.3-1.4-0.4
	s-1.3-0.3-2.1-0.5c-0.8-0.2-1.5-0.4-2.3-0.6c-0.8-0.3-1.5-0.6-2.2-1.1c-0.6-0.5-1.2-1.1-1.6-1.8c-0.4-0.7-0.6-1.7-0.6-2.8
	C58,13.1,58.7,11.6,60.2,10.4z"/>
</svg>
