<?xml version="1.0" encoding="UTF-8"?>
<!-- Generator: Adobe Illustrator 24.0.1, SVG Export Plug-In . SVG Version: 6.00 Build 0)  -->
<svg version="1.1" id="Layer_1" xmlns="http://www.w3.org/2000/svg" xmlns:xlink="http://www.w3.org/1999/xlink" x="0px" y="0px" viewBox="0 0 101.7 30" style="enable-background:new 0 0 101.7 30;" xml:space="preserve">
<style type="text/css">
	.st0{fill:#666666;}
</style>
<title>teens</title>
<path class="st0" d="M11.7,29.5c-0.7,0.1-1.4,0.2-2.1,0.2c-1.9,0-3.3-0.5-4.4-1.5c-1-1-1.6-2.6-1.6-4.9v-9.5H0V9.3h3.7V3.9H9v5.4  h5.1v4.5H9v8.8c0,0.6,0.2,1.1,0.5,1.4s0.8,0.4,1.5,0.4c0.4,0,0.8,0,1.2-0.1c0.4,0,1-0.1,1.7-0.3v5C13.2,29.2,12.5,29.4,11.7,29.5z"/>
<path class="st0" d="M16.6,15.2c0.5-1.3,1.2-2.4,2.1-3.4s2-1.7,3.2-2.2s2.7-0.8,4.3-0.8c1.5,0,2.9,0.3,4.2,0.8  c1.2,0.5,2.3,1.2,3.1,2.2s1.5,2.1,2,3.4s0.7,2.8,0.7,4.4V21H21.3v0.1c0.2,0.7,0.4,1.3,0.8,1.7c0.4,0.5,0.8,0.9,1.3,1.2  c0.5,0.3,1,0.6,1.6,0.7s1.2,0.2,1.8,0.2c1.2,0,2.3-0.2,3.2-0.6c1-0.4,1.8-0.9,2.5-1.5l2.2,4.4c-0.8,0.7-1.9,1.3-3.2,1.9  c-1.3,0.5-2.9,0.8-4.8,0.8c-1.7,0-3.2-0.3-4.6-0.8c-1.3-0.5-2.5-1.3-3.4-2.2c-0.9-0.9-1.6-2.1-2.1-3.3c-0.5-1.3-0.7-2.7-0.7-4.2  C15.9,17.9,16.1,16.5,16.6,15.2z M29.1,14.4c-0.7-0.7-1.7-1.1-3-1.1s-2.3,0.3-3.1,1s-1.3,1.6-1.6,2.8h9.1  C30.2,16,29.8,15.1,29.1,14.4z"/>
<path class="st0" d="M39,15.2c0.5-1.3,1.2-2.4,2.1-3.4c0.9-1,2-1.7,3.2-2.2s2.7-0.8,4.3-0.8c1.5,0,2.9,0.3,4.2,0.8  c1.2,0.5,2.3,1.2,3.1,2.2s1.5,2.1,2,3.4s0.7,2.8,0.7,4.4V21H43.7v0.1c0.2,0.7,0.4,1.3,0.8,1.7c0.4,0.5,0.8,0.9,1.3,1.2  c0.5,0.3,1,0.6,1.6,0.7s1.2,0.2,1.8,0.2c1.2,0,2.3-0.2,3.2-0.6c1-0.4,1.8-0.9,2.5-1.5l2.2,4.4c-0.8,0.7-1.9,1.3-3.2,1.9  c-1.3,0.5-2.9,0.8-4.8,0.8c-1.7,0-3.2-0.3-4.6-0.8c-1.3-0.5-2.5-1.3-3.4-2.2c-0.9-0.9-1.6-2.1-2.1-3.3c-0.5-1.3-0.7-2.7-0.7-4.2  C38.3,17.9,38.5,16.5,39,15.2z M51.5,14.4c-0.7-0.7-1.7-1.1-3-1.1s-2.3,0.3-3.1,1s-1.3,1.6-1.6,2.8h9.1C52.6,16,52.2,15.1,51.5,14.4  z"/>
<path class="st0" d="M69.7,9.7c1.1-0.6,2.4-0.9,3.9-0.9c2.4,0,4.1,0.7,5.3,2.2s1.8,3.4,1.8,6v12.5h-5.4V18.3c0-1.5-0.3-2.6-1-3.3  s-1.6-1-2.7-1c-1.6,0-2.7,0.5-3.4,1.6c-0.7,1.1-1,2.5-1,4.3v9.6h-5.3V9.3h5.2v2.9C67.8,11.2,68.7,10.4,69.7,9.7z"/>
<path class="st0" d="M87.3,10.5c1.5-1.1,3.6-1.7,6.3-1.7c1.9,0,3.4,0.3,4.7,0.8c1.3,0.5,2.4,1.3,3.3,2.2l-3,3.9  c-0.6-0.6-1.3-1.1-2.3-1.5s-2-0.6-3.1-0.6c-1.7,0-2.6,0.5-2.6,1.4c0,0.2,0.1,0.5,0.2,0.6c0.1,0.2,0.4,0.3,0.8,0.5  c0.4,0.1,0.8,0.3,1.5,0.4c0.6,0.1,1.4,0.3,2.2,0.5c0.9,0.2,1.7,0.4,2.5,0.7c0.8,0.3,1.5,0.7,2,1.1c0.6,0.5,1,1.1,1.4,1.8  c0.3,0.7,0.5,1.6,0.5,2.7c0,2.3-0.8,4-2.3,5s-3.7,1.6-6.4,1.6c-1.9,0-3.7-0.3-5.3-0.8c-1.6-0.6-2.8-1.4-3.7-2.5l3.1-4  c0.7,0.8,1.5,1.4,2.6,1.9s2.3,0.7,3.8,0.7c0.8,0,1.4-0.1,1.9-0.3c0.5-0.2,0.8-0.6,0.8-1.2c0-0.3-0.1-0.5-0.2-0.7s-0.4-0.3-0.7-0.5  c-0.3-0.1-0.8-0.3-1.4-0.4s-1.3-0.3-2.1-0.5c-0.8-0.2-1.5-0.4-2.3-0.6c-0.8-0.3-1.5-0.6-2.2-1.1S86,18.7,85.6,18S85,16.3,85,15.2  C85,13.2,85.8,11.6,87.3,10.5z"/>
</svg>