<?xml version="1.0" encoding="UTF-8"?>
<!-- Generator: Adobe Illustrator 24.3.0, SVG Export Plug-In . SVG Version: 6.00 Build 0)  -->
<svg version="1.1" id="Layer_1" xmlns="http://www.w3.org/2000/svg" xmlns:xlink="http://www.w3.org/1999/xlink" x="0px" y="0px" viewBox="0 0 1224 250" style="enable-background:new 0 0 1224 250;" xml:space="preserve">
<style type="text/css">
	.st0{fill:#307FE2;}
	.st1{fill:#FFFFFF;}
	.st2{fill:#F93822;}
	.st3{fill:#FFB600;}
</style>
<g id="vpl-logo">
	<g id="blocks">
		<g id="v-block">
			<rect id="block-1" y="-0.19" class="st0" width="250" height="250"/>
			<polygon id="letter-v" class="st1" points="125,148.77 92.72,44.81 49.56,44.81 106.16,204.81 143.84,204.81 200.44,44.81      157.28,44.81    "/>
		</g>
		<g id="p-block">
			<rect id="block-2" x="290" y="-0.19" class="st2" width="250" height="250"/>
			<path id="letter-p" class="st1" d="M482.95,102.87c0,32.02-26.67,58.06-59.45,58.06h-36.34v43.88h-40.11v-160h76.46     C456.28,44.81,482.95,70.85,482.95,102.87z M444.09,102.87c0-10.59-9.24-19.2-20.59-19.2h-36.27v38.41h36.27     C434.86,122.07,444.09,113.46,444.09,102.87z"/>
		</g>
		<g id="l-block">
			<rect id="block-3" x="580" y="-0.19" class="st3" width="250" height="250"/>
			<polygon id="letter-l" class="st1" points="684.18,164.68 684.18,44.81 643.81,44.81 643.81,204.81 643.81,204.81 766.19,204.81      766.19,164.68    "/>
		</g>
	</g>
	<g id="typography">
		<g id="vancouver">
			<path id="letter-v_1_" d="M858.33,44.81h10.74l12.57,26.63l12.57-26.63h10.74l-18.86,40h-8.92L858.33,44.81z"/>
			<path id="letter-a_1_" d="M928.29,79.26H909.2l-2.57,5.54h-10.69l18.46-40h8.69l18.46,40h-10.69L928.29,79.26z M923.77,69.55     l-5.03-10.92l-5.03,10.92H923.77z"/>
			<path id="letter-n" d="M943.84,44.81h8.06l19.26,23.03V44.81h9.71v40h-8.06l-19.26-23.03v23.03h-9.71V44.81z"/>
			<path id="letter-c_1_" d="M1006.31,44.81c5.43,0,10.74,1.66,14.69,5.37l-4.74,8.86c-3.03-3.2-6.17-4.52-9.94-4.52     c-6.06,0-10.4,4.23-10.4,10.29s4.29,10.29,10.34,10.29c3.6,0,7.31-1.26,10.63-5.08l4.92,8.97c-4.11,3.77-9.37,5.83-15.37,5.83     c-11.66,0-20.23-8.63-20.23-20.06C986.19,53.32,994.82,44.81,1006.31,44.81z"/>
			<path id="letter-o" d="M1023.69,64.81c0-11.43,8.57-20,20-20s20,8.57,20,20c0,11.43-8.57,20-20,20S1023.69,76.23,1023.69,64.81z      M1053.97,64.81c0-6.06-4.23-10.29-10.29-10.29s-10.29,4.23-10.29,10.29s4.23,10.29,10.29,10.29S1053.97,70.86,1053.97,64.81z"/>
			<path id="letter-u_1_" d="M1068.55,66.18V44.81h9.71v21.37c0,5.89,3.89,8.92,9.14,8.92c5.2,0,9.08-3.03,9.08-8.92V44.81h9.71     v21.37c0,11.32-8.06,18.63-18.8,18.63C1076.61,84.81,1068.55,77.49,1068.55,66.18z"/>
			<path id="letter-v_2_" d="M1108.96,44.81h10.74l12.57,26.63l12.57-26.63h10.74l-18.86,40h-8.92L1108.96,44.81z"/>
			<path id="letter-e" d="M1158.34,44.81h26.57v9.71h-16.86v5.43h16.86v9.71h-16.86v5.43h16.86v9.71h-26.57V44.81z"/>
			<path id="letter-r_2_" d="M1212.3,84.81l-7.6-12.23h-3.71v12.23h-9.71v-40h18.17c7.71,0,13.71,6.11,13.71,13.89     c0,5.71-3.26,10.52-8.06,12.68l8.92,13.43H1212.3z M1200.98,62.86h8.46c2.29,0,4-1.83,4-4.17c0-2.4-1.66-4.17-4-4.17h-8.46V62.86     z"/>
		</g>
		<g id="public">
			<path id="letter-p_1_" d="M870,104.81h16.52c8.23,0,14.46,5.99,14.46,14.22s-6,14.29-14.46,14.29h-6.8v11.43H870V104.81z      M886.52,123.6c3.37,0,4.74-1.94,4.74-4.57s-1.37-4.57-4.74-4.57h-6.8v9.14L886.52,123.6L886.52,123.6z"/>
			<path id="letter-u" d="M905.78,126.11v-21.3h9.71v21.3c0,5.89,3.89,8.92,9.14,8.92c5.2,0,9.08-3.03,9.08-8.92v-21.3h9.71v21.3     c0,11.32-8.06,18.63-18.8,18.63C913.84,144.74,905.78,137.43,905.78,126.11z"/>
			<path id="letter-b_1_" d="M949.79,104.81h17.2c8.51,0,12.45,4.91,12.45,11.25c0,4.46-2,7.37-5.03,8.69     c3.15,1.37,5.03,4.4,5.03,8.68c0,6.34-4.06,11.32-12.45,11.32h-17.2V104.81z M966.53,119.88c1.94,0,3.2-1.03,3.2-2.8     c0-1.48-0.91-2.63-3.03-2.63h-7.2v5.43L966.53,119.88L966.53,119.88z M966.7,135.03c2.11,0,3.03-1.09,3.03-2.63     c0-1.83-1.26-2.8-3.2-2.8h-7.03v5.43L966.7,135.03L966.7,135.03z"/>
			<path id="letter-l_2_" d="M985.34,104.81h9.71v30.22h17.2v9.78h-26.92L985.34,104.81L985.34,104.81z"/>
			<path id="letter-i_1_" d="M1017.52,104.81h9.71v40h-9.71V104.81z"/>
			<path id="letter-c" d="M1052.67,104.74c5.43,0,10.74,1.66,14.69,5.37l-4.74,8.86c-3.03-3.2-6.17-4.52-9.94-4.52     c-6.06,0-10.4,4.23-10.4,10.29s4.29,10.29,10.34,10.29c3.6,0,7.31-1.26,10.63-5.08l4.92,8.97c-4.11,3.77-9.37,5.83-15.37,5.83     c-11.66,0-20.23-8.63-20.23-20.06C1032.55,113.26,1041.18,104.74,1052.67,104.74z"/>
		</g>
		<g id="library">
			<path id="letter-l_1_" d="M870,164.81h9.75v30.25h17.22v9.75H870V164.81z"/>
			<path id="letter-i" d="M902.25,164.81H912v39.97h-9.75V164.81z"/>
			<path id="letter-b" d="M919.49,164.81h17.2c8.4,0,12.45,4.94,12.45,11.28c0,4.46-2,7.37-5.03,8.69c3.15,1.37,5.03,4.4,5.03,8.68     c0,6.34-4.06,11.31-12.45,11.31h-17.2V164.81z M936.24,179.92c1.94,0,3.2-1.03,3.2-2.8c0-1.48-0.91-2.63-3.03-2.63h-7.2v5.43     H936.24z M936.41,195.06c2.11,0,3.03-1.09,3.03-2.63c0-1.83-1.26-2.8-3.2-2.8h-7.03v5.43H936.41z"/>
			<path id="letter-r" d="M976.07,204.77l-7.6-12.23h-3.71v12.23h-9.71v-39.97h18.17c7.71-0.03,13.71,6.08,13.71,13.85     c0,5.71-3.26,10.52-8.06,12.68l8.92,13.43H976.07z M964.76,182.83h8.46c2.29,0,4-1.83,4-4.17c0-2.4-1.66-4.17-4-4.17h-8.46     V182.83z"/>
			<path id="letter-a" d="M1021.45,199.23h-19.08l-2.57,5.54h-10.69l18.46-39.97h8.69l18.46,39.97h-10.69L1021.45,199.23z      M1016.94,189.52l-5.03-10.91l-5.03,10.91H1016.94z"/>
			<path id="letter-r_1_" d="M1058.49,204.77l-7.6-12.23h-3.71v12.23h-9.71v-39.97h18.17c7.71-0.03,13.71,6.08,13.71,13.85     c0,5.71-3.26,10.52-8.06,12.68l8.92,13.43H1058.49z M1047.18,182.83h8.46c2.29,0,4-1.83,4-4.17c0-2.4-1.66-4.17-4-4.17h-8.46     V182.83z"/>
			<path id="letter-y" d="M1084.44,190.09l-16.26-25.28h11.66l9.46,14.88l9.7-14.88h11.66l-16.5,25.28v14.68h-9.71V190.09z"/>
		</g>
	</g>
</g>
</svg>